<svg xmlns="http://www.w3.org/2000/svg" xmlns:xlink="http://www.w3.org/1999/xlink" version="1.1" width="256" height="256" viewBox="0 0 256 256" xml:space="preserve">

<defs>
</defs>
<g style="stroke: none; stroke-width: 0; stroke-dasharray: none; stroke-linecap: butt; stroke-linejoin: miter; stroke-miterlimit: 10; fill: none; fill-rule: nonzero; opacity: 1;" transform="translate(1.4065934065934016 1.4065934065934016) scale(2.81 2.81)" >
	<rect x="21.19" y="2.48" rx="0" ry="0" width="47.62" height="72.76" style="stroke: none; stroke-width: 1; stroke-dasharray: none; stroke-linecap: butt; stroke-linejoin: miter; stroke-miterlimit: 10; fill: rgb(255,197,51); fill-rule: nonzero; opacity: 1;" transform=" matrix(1 0 0 1 0 0) "/>
	<path d="M 67.837 15 H 22.163 c -4.142 0 -7.5 -3.358 -7.5 -7.5 v 0 c 0 -4.142 3.358 -7.5 7.5 -7.5 h 45.675 c 4.142 0 7.5 3.358 7.5 7.5 v 0 C 75.337 11.642 71.98 15 67.837 15 z" style="stroke: none; stroke-width: 1; stroke-dasharray: none; stroke-linecap: butt; stroke-linejoin: miter; stroke-miterlimit: 10; fill: rgb(255,197,51); fill-rule: nonzero; opacity: 1;" transform=" matrix(1 0 0 1 0 0) " stroke-linecap="round" />
	<path d="M 70.275 0.413 c 0.263 0.765 0.413 1.583 0.413 2.437 v 0 c 0 4.142 -3.358 7.5 -7.5 7.5 H 17.513 c -0.854 0 -1.672 -0.15 -2.437 -0.413 C 16.088 12.881 18.875 15 22.162 15 h 45.675 c 4.142 0 7.5 -3.358 7.5 -7.5 v 0 C 75.337 4.212 73.219 1.426 70.275 0.413 z" style="stroke: none; stroke-width: 1; stroke-dasharray: none; stroke-linecap: butt; stroke-linejoin: miter; stroke-miterlimit: 10; fill: rgb(244,174,1); fill-rule: nonzero; opacity: 1;" transform=" matrix(1 0 0 1 0 0) " stroke-linecap="round" />
	<path d="M 81.828 45 H 8.172 c -4.142 0 -7.5 -3.358 -7.5 -7.5 v 0 c 0 -4.142 3.358 -7.5 7.5 -7.5 h 73.655 c 4.142 0 7.5 3.358 7.5 7.5 v 0 C 89.328 41.642 85.97 45 81.828 45 z" style="stroke: none; stroke-width: 1; stroke-dasharray: none; stroke-linecap: butt; stroke-linejoin: miter; stroke-miterlimit: 10; fill: rgb(255,197,51); fill-rule: nonzero; opacity: 1;" transform=" matrix(1 0 0 1 0 0) " stroke-linecap="round" />
	<path d="M 84.265 30.413 c 0.263 0.765 0.413 1.583 0.413 2.437 v 0 c 0 4.142 -3.358 7.5 -7.5 7.5 H 3.523 c -0.854 0 -1.672 -0.15 -2.437 -0.413 C 2.098 42.881 4.885 45 8.172 45 h 73.655 c 4.142 0 7.5 -3.358 7.5 -7.5 v 0 C 89.327 34.212 87.209 31.426 84.265 30.413 z" style="stroke: none; stroke-width: 1; stroke-dasharray: none; stroke-linecap: butt; stroke-linejoin: miter; stroke-miterlimit: 10; fill: rgb(244,174,1); fill-rule: nonzero; opacity: 1;" transform=" matrix(1 0 0 1 0 0) " stroke-linecap="round" />
	<path d="M 33.812 60 H 8.172 c -4.142 0 -7.5 -3.358 -7.5 -7.5 v 0 c 0 -4.142 3.358 -7.5 7.5 -7.5 h 73.655 c 4.142 0 7.5 3.358 7.5 7.5 v 0 c 0 4.142 -3.358 7.5 -7.5 7.5 h -8.397" style="stroke: none; stroke-width: 1; stroke-dasharray: none; stroke-linecap: butt; stroke-linejoin: miter; stroke-miterlimit: 10; fill: rgb(255,197,51); fill-rule: nonzero; opacity: 1;" transform=" matrix(1 0 0 1 0 0) " stroke-linecap="round" />
	<path d="M 84.265 45.413 c 0.263 0.765 0.413 1.583 0.413 2.437 c 0 4.142 -3.358 7.5 -7.5 7.5 h -8.397 H 29.162 H 3.523 c -0.854 0 -1.672 -0.15 -2.437 -0.413 C 2.098 57.881 4.885 60 8.172 60 h 25.639 h 39.619 h 8.397 c 4.142 0 7.5 -3.358 7.5 -7.5 C 89.327 49.212 87.209 46.426 84.265 45.413 z" style="stroke: none; stroke-width: 1; stroke-dasharray: none; stroke-linecap: butt; stroke-linejoin: miter; stroke-miterlimit: 10; fill: rgb(244,174,1); fill-rule: nonzero; opacity: 1;" transform=" matrix(1 0 0 1 0 0) " stroke-linecap="round" />
	<path d="M 75.487 30 H 14.513 c -4.142 0 -7.5 -3.358 -7.5 -7.5 v 0 c 0 -4.142 3.358 -7.5 7.5 -7.5 h 60.975 c 4.142 0 7.5 3.358 7.5 7.5 v 0 C 82.987 26.642 79.629 30 75.487 30 z" style="stroke: none; stroke-width: 1; stroke-dasharray: none; stroke-linecap: butt; stroke-linejoin: miter; stroke-miterlimit: 10; fill: rgb(255,197,51); fill-rule: nonzero; opacity: 1;" transform=" matrix(1 0 0 1 0 0) " stroke-linecap="round" />
	<path d="M 77.925 15.413 c 0.263 0.765 0.413 1.583 0.413 2.437 v 0 c 0 4.142 -3.358 7.5 -7.5 7.5 H 9.863 c -0.854 0 -1.672 -0.15 -2.437 -0.413 C 8.438 27.881 11.225 30 14.513 30 h 60.975 c 4.142 0 7.5 -3.358 7.5 -7.5 v 0 C 82.987 19.212 80.869 16.426 77.925 15.413 z" style="stroke: none; stroke-width: 1; stroke-dasharray: none; stroke-linecap: butt; stroke-linejoin: miter; stroke-miterlimit: 10; fill: rgb(244,174,1); fill-rule: nonzero; opacity: 1;" transform=" matrix(1 0 0 1 0 0) " stroke-linecap="round" />
	<path d="M 67.837 75 H 22.163 c -4.142 0 -7.5 3.358 -7.5 7.5 v 0 c 0 4.142 3.358 7.5 7.5 7.5 h 45.675 c 4.142 0 7.5 -3.358 7.5 -7.5 v 0 C 75.337 78.358 71.98 75 67.837 75 z" style="stroke: none; stroke-width: 1; stroke-dasharray: none; stroke-linecap: butt; stroke-linejoin: miter; stroke-miterlimit: 10; fill: rgb(255,197,51); fill-rule: nonzero; opacity: 1;" transform=" matrix(1 0 0 1 0 0) " stroke-linecap="round" />
	<path d="M 70.275 75.413 c 0.263 0.765 0.413 1.583 0.413 2.437 c 0 4.142 -3.358 7.5 -7.5 7.5 H 17.513 c -0.854 0 -1.672 -0.15 -2.437 -0.413 C 16.088 87.881 18.875 90 22.162 90 h 45.675 c 4.142 0 7.5 -3.358 7.5 -7.5 C 75.337 79.212 73.219 76.426 70.275 75.413 z" style="stroke: none; stroke-width: 1; stroke-dasharray: none; stroke-linecap: butt; stroke-linejoin: miter; stroke-miterlimit: 10; fill: rgb(244,174,1); fill-rule: nonzero; opacity: 1;" transform=" matrix(1 0 0 1 0 0) " stroke-linecap="round" />
	<path d="M 29.789 60 H 14.513 c -4.142 0 -7.5 3.358 -7.5 7.5 v 0 c 0 4.142 3.358 7.5 7.5 7.5 h 60.975 c 4.142 0 7.5 -3.358 7.5 -7.5 v 0 c 0 -4.142 -3.358 -7.5 -7.5 -7.5 h -6.08" style="stroke: none; stroke-width: 1; stroke-dasharray: none; stroke-linecap: butt; stroke-linejoin: miter; stroke-miterlimit: 10; fill: rgb(255,197,51); fill-rule: nonzero; opacity: 1;" transform=" matrix(1 0 0 1 0 0) " stroke-linecap="round" />
	<path d="M 77.925 60.413 c 0.263 0.765 0.413 1.583 0.413 2.437 c 0 4.142 -3.358 7.5 -7.5 7.5 H 9.863 c -0.854 0 -1.672 -0.15 -2.437 -0.413 C 8.438 72.881 11.225 75 14.513 75 h 60.975 c 4.142 0 7.5 -3.358 7.5 -7.5 C 82.987 64.212 80.869 61.426 77.925 60.413 z" style="stroke: none; stroke-width: 1; stroke-dasharray: none; stroke-linecap: butt; stroke-linejoin: miter; stroke-miterlimit: 10; fill: rgb(244,174,1); fill-rule: nonzero; opacity: 1;" transform=" matrix(1 0 0 1 0 0) " stroke-linecap="round" />
	<path d="M 45 47.838 L 45 47.838 c -5.159 0 -9.34 4.182 -9.34 9.34 V 70.35 H 54.34 V 57.179 C 54.34 52.02 50.159 47.838 45 47.838 z" style="stroke: none; stroke-width: 1; stroke-dasharray: none; stroke-linecap: butt; stroke-linejoin: miter; stroke-miterlimit: 10; fill: rgb(230,81,0); fill-rule: nonzero; opacity: 1;" transform=" matrix(1 0 0 1 0 0) " stroke-linecap="round" />
	<path d="M 45 47.838 c -0.795 0 -1.562 0.11 -2.299 0.297 c 4.045 1.026 7.041 4.68 7.041 9.044 V 70.35 h 4.598 V 57.179 C 54.34 52.02 50.159 47.838 45 47.838 z" style="stroke: none; stroke-width: 1; stroke-dasharray: none; stroke-linecap: butt; stroke-linejoin: miter; stroke-miterlimit: 10; fill: rgb(206,83,0); fill-rule: nonzero; opacity: 1;" transform=" matrix(1 0 0 1 0 0) " stroke-linecap="round" />
</g>
</svg>